<svg clip-rule="evenodd" fill-rule="evenodd" stroke-linejoin="round" stroke-miterlimit="2" viewBox="0 0 1024 1024" xmlns="http://www.w3.org/2000/svg"><path d="m0 0h1024v1024h-1024z" fill="none"/><circle cx="512" cy="512" fill="#28dc2a" r="144"/><path d="m481.141 518.138-113.141-6.138 113.141-6.138-102.18-48.968 106.878 37.626-75.662-84.343 84.343 75.662-37.626-106.878 48.968 102.18 6.138-113.141 6.138 113.141 48.968-102.18-37.626 106.878 84.343-75.662-75.662 84.343 106.878-37.626-102.18 48.968 113.141 6.138-113.141 6.138 102.18 48.968-106.878-37.626 75.662 84.343-84.343-75.662 37.626 106.878-48.968-102.18-6.138 113.141-6.138-113.141-48.968 102.18 37.626-106.878-84.343 75.662 75.662-84.343-106.878 37.626z" fill="#0c0a09"/><circle cx="512" cy="512" fill="#0c0a09" r="96"/><path d="m128.01 512c255.993-320.193 511.987-319.806 767.98 0-255.993 320.193-511.987 319.806-767.98 0zm53.958-.015c110.489 130.294 219.331 198.306 330.048 198.348 110.708.042 219.536-67.89 330.016-198.318-110.489-130.294-219.331-198.306-330.048-198.348-110.708-.042-219.536 67.89-330.016 198.318z"/><g fill="#fff"><circle cx="458" cy="554" r="6"/><circle cx="470" cy="566" r="6"/><circle cx="566" cy="458" r="12"/></g></svg>