<svg clip-rule="evenodd" fill-rule="evenodd" stroke-linecap="square" stroke-linejoin="round" stroke-miterlimit="1.5" viewBox="0 0 1024 1024" xmlns="http://www.w3.org/2000/svg"><g><path d="m0 0h1024v1024h-1024z" fill="none"/><path d="m3325.29 1934.78v59.68c0 16.05-13.4 29.08-29.92 29.08h-101.81c-16.51 0-29.92-13.03-29.92-29.08v-59.68c0-16.05 13.41-29.08 29.92-29.08h101.81c16.52 0 29.92 13.03 29.92 29.08zm-13.15 0c0-8.99-7.52-16.29-16.77-16.29h-101.81c-9.25 0-16.76 7.3-16.76 16.29v59.68c0 8.99 7.51 16.29 16.76 16.29h101.81c9.25 0 16.77-7.3 16.77-16.29z" fill="#fb1b18" transform="matrix(3.16734 0 0 3.25882 -9764.33 -5794.33)"/><path d="m3234.4 1901.59v-25.37c0-36.68 29.77-66.45 66.45-66.45s66.45 29.77 66.45 66.45c0 .07.09.46 0 .46h.04v24.91" fill="none" stroke="#fb1b18" stroke-width="19.9" transform="matrix(2.09361 0 0 2.09361 -6398.74 -3565.2)"/><circle cx="512.0031038" cy="607.99744305" fill="#fb1b18" r="64.00049162" stroke-width=".933115"/></g></svg>