<svg clip-rule="evenodd" fill-rule="evenodd" stroke-linecap="round" stroke-linejoin="round" stroke-miterlimit="1.5" viewBox="0 0 1024 1024" xmlns="http://www.w3.org/2000/svg"><path d="m0 0h1024v1024h-1024z" fill="none"/><path d="m754.955 667.21c-22.581 34.83-52.445 64.508-87.429 86.87-44.927 28.718-98.297 45.369-155.526 45.369-159.687 0-289.333-129.646-289.333-289.333" fill="none" stroke="#000" stroke-width="41.67"/><path d="m228 448.937c13.856 0 69.282 97.417 62.354 109.594-6.928 12.178-117.78 12.178-124.708 0-6.928-12.177 48.498-109.594 62.354-109.594z"/><path d="m269.045 356.79c22.581-34.83 52.445-64.508 87.429-86.87 44.927-28.718 98.297-45.369 155.526-45.369 159.687 0 289.333 129.646 289.333 289.333" fill="none" stroke="#000" stroke-width="41.67"/><path d="m796 575.063c-13.856 0-69.282-97.417-62.354-109.594 6.928-12.178 117.78-12.178 124.708 0 6.928 12.177-48.498 109.594-62.354 109.594z"/></svg>